<svg width="67" height="97" viewBox="0 0 67 97" fill="none" xmlns="http://www.w3.org/2000/svg">
<g filter="url(#filter0_d_254_450)">
<g clip-path="url(#clip0_254_450)">
<path d="M19.0455 88.9913C27.084 88.9913 33.6041 82.3515 33.6041 74.1655V59.3398H19.0455C11.0069 59.3398 4.48682 65.9796 4.48682 74.1655C4.48682 82.3515 11.0069 88.9913 19.0455 88.9913Z" fill="#0ACF83"/>
<path d="M4.48682 44.4956C4.48682 36.3097 11.0069 29.6699 19.0455 29.6699H33.6041V59.3395H19.0455C11.0069 59.3213 4.48682 52.6816 4.48682 44.4956Z" fill="#A259FF"/>
<path d="M4.48682 14.8257C4.48682 6.63973 11.0069 0 19.0455 0H33.6041V29.6696H19.0455C11.0069 29.6696 4.48682 23.0117 4.48682 14.8257Z" fill="#F24E1E"/>
<path d="M33.6219 0H48.1806C56.2191 0 62.7392 6.63973 62.7392 14.8257C62.7392 23.0117 56.2191 29.6514 48.1806 29.6514H33.6219V0Z" fill="#FF7262"/>
<path d="M62.7392 44.4956C62.7392 52.6816 56.2191 59.3213 48.1806 59.3213C40.1421 59.3213 33.6219 52.6816 33.6219 44.4956C33.6219 36.3097 40.1421 29.6699 48.1806 29.6699C56.2191 29.6699 62.7392 36.3097 62.7392 44.4956Z" fill="#1ABCFE"/>
</g>
</g>
<defs>
<filter id="filter0_d_254_450" x="0.486816" y="0" width="66.2524" height="96.9902" filterUnits="userSpaceOnUse" color-interpolation-filters="sRGB">
<feFlood flood-opacity="0" result="BackgroundImageFix"/>
<feColorMatrix in="SourceAlpha" type="matrix" values="0 0 0 0 0 0 0 0 0 0 0 0 0 0 0 0 0 0 127 0" result="hardAlpha"/>
<feOffset dy="4"/>
<feGaussianBlur stdDeviation="2"/>
<feComposite in2="hardAlpha" operator="out"/>
<feColorMatrix type="matrix" values="0 0 0 0 0 0 0 0 0 0 0 0 0 0 0 0 0 0 0.25 0"/>
<feBlend mode="normal" in2="BackgroundImageFix" result="effect1_dropShadow_254_450"/>
<feBlend mode="normal" in="SourceGraphic" in2="effect1_dropShadow_254_450" result="shape"/>
</filter>
<clipPath id="clip0_254_450">
<rect width="58.2524" height="88.9906" fill="white" transform="translate(4.48682)"/>
</clipPath>
</defs>
</svg>
