<svg width="98" height="95" viewBox="0 0 98 95" fill="none" xmlns="http://www.w3.org/2000/svg">
<g filter="url(#filter0_d_254_460)">
<path d="M12.4862 21.5124C12.5116 21.4234 12.6377 21.4234 12.6632 21.5124L12.7794 21.9185C12.7931 21.9662 12.8421 21.9945 12.8902 21.9825L13.3007 21.8799C13.3906 21.8574 13.4536 21.9669 13.3891 22.0334L13.0954 22.3359C13.0607 22.3716 13.0607 22.4284 13.0954 22.4642L13.3891 22.7667C13.4536 22.8332 13.3906 22.9426 13.3007 22.9201L12.8902 22.8175C12.8421 22.8055 12.7931 22.8338 12.7794 22.8815L12.6632 23.2876C12.6377 23.3766 12.5116 23.3766 12.4862 23.2876L12.3699 22.8815C12.3563 22.8338 12.3073 22.8055 12.2591 22.8175L11.8487 22.9201C11.7588 22.9426 11.6957 22.8332 11.7603 22.7667L12.054 22.4642C12.0886 22.4284 12.0886 22.3716 12.054 22.3359L11.7603 22.0334C11.6957 21.9669 11.7588 21.8574 11.8487 21.8799L12.2591 21.9825C12.3073 21.9945 12.3563 21.9662 12.3699 21.9185L12.4862 21.5124Z" fill="#E5E5E5"/>
<g clip-path="url(#clip0_254_460)">
<path d="M8.19635 3.70898H89.7809V83.0685H8.19635V3.70898Z" fill="#2E001E"/>
<path d="M4.48682 0V86.775H93.4868V0H4.48682ZM8.19634 3.70952H89.7809V83.069H8.19634V3.70952Z" fill="#FF2BC2"/>
<path d="M69.1222 36.4548C68.5668 36.1949 67.8619 36.0846 66.9719 36.0846C62.2977 36.0846 59.1827 39.6802 59.1827 45.6539C59.1827 52.4784 62.3724 55.2231 66.5269 55.2231C67.4169 55.2231 68.3817 55.1128 69.0866 54.8137V36.4548H69.1222ZM52.5112 45.9458C52.5112 37.3057 58.0755 30.5559 67.1962 30.5559C67.9759 30.5559 68.3817 30.5559 69.1257 30.6307V20.9902C69.1257 20.7695 69.3109 20.6199 69.496 20.6199H75.4661C75.7616 20.6199 75.8363 20.7303 75.8363 20.9154V54.8102C75.8363 55.8105 75.8363 57.0708 76.0215 58.4449C76.0215 58.7048 76.0215 58.7404 75.7972 58.8543C72.6822 60.3389 69.4177 61.0046 66.3027 61.0046C58.2571 61.001 52.5112 56.0348 52.5112 45.9458ZM39.8661 39.9401L50.2506 60.0754C50.4357 60.3709 50.3254 60.6699 50.0263 60.6699H43.5721C43.1627 60.6699 42.9775 60.5596 42.7924 60.1893C40.4179 55.2943 38.0078 50.2142 35.5229 44.949H35.4481C33.2231 49.9187 30.7774 55.3335 28.4029 60.2285C28.2178 60.524 28.0327 60.6379 27.7336 60.6379H21.5819C21.2117 60.6379 21.1725 60.3424 21.3577 60.1181L31.5179 40.5737L21.6923 21.1433C21.468 20.8478 21.6923 20.5879 21.9522 20.5879H28.3317C28.7019 20.5879 28.8871 20.6627 29.001 20.9973C31.3363 25.9279 33.7109 30.7873 35.9359 35.7571H36.0106C38.1609 30.8621 40.5354 25.9315 42.796 21.0721C42.9811 20.7766 43.0915 20.5915 43.4653 20.5915H49.4354C49.7309 20.5915 49.8448 20.8157 49.6597 21.1468L39.8661 39.9401Z" fill="#FF2BC2"/>
</g>
</g>
<defs>
<filter id="filter0_d_254_460" x="0.486816" y="0" width="97" height="94.7754" filterUnits="userSpaceOnUse" color-interpolation-filters="sRGB">
<feFlood flood-opacity="0" result="BackgroundImageFix"/>
<feColorMatrix in="SourceAlpha" type="matrix" values="0 0 0 0 0 0 0 0 0 0 0 0 0 0 0 0 0 0 127 0" result="hardAlpha"/>
<feOffset dy="4"/>
<feGaussianBlur stdDeviation="2"/>
<feComposite in2="hardAlpha" operator="out"/>
<feColorMatrix type="matrix" values="0 0 0 0 0 0 0 0 0 0 0 0 0 0 0 0 0 0 0.25 0"/>
<feBlend mode="normal" in2="BackgroundImageFix" result="effect1_dropShadow_254_460"/>
<feBlend mode="normal" in="SourceGraphic" in2="effect1_dropShadow_254_460" result="shape"/>
</filter>
<clipPath id="clip0_254_460">
<rect width="89" height="86.775" fill="white" transform="translate(4.48682)"/>
</clipPath>
</defs>
</svg>
